<?xml version="1.0" standalone="no"?>
<!DOCTYPE svg PUBLIC "-//W3C//DTD SVG 20010904//EN"
 "http://www.w3.org/TR/2001/REC-SVG-20010904/DTD/svg10.dtd">
<svg version="1.0" xmlns="http://www.w3.org/2000/svg"
 width="500.000000pt" height="258.000000pt" viewBox="0 0 500.000000 258.000000"
 preserveAspectRatio="xMidYMid meet">
<metadata>
Created by potrace 1.12, written by Peter Selinger 2001-2015
</metadata>
<g transform="translate(0.000000,258.000000) scale(0.100000,-0.100000)"
fill="#000000" stroke="none">
<path d="M1250 2539 l0 -40 38 3 c35 3 37 5 40 41 l3 37 -40 0 -41 0 0 -41z"/>
<path d="M1362 2543 c3 -36 5 -38 41 -41 l37 -3 0 40 0 41 -41 0 -40 0 3 -37z"/>
<path d="M1480 2540 c0 -39 1 -40 35 -40 34 0 35 1 35 40 0 39 -1 40 -35 40
-34 0 -35 -1 -35 -40z"/>
<path d="M1705 2550 c-9 -40 0 -50 41 -50 33 0 34 1 34 40 0 39 -1 40 -34 40
-30 0 -35 -4 -41 -30z"/>
<path d="M1820 2540 c0 -39 1 -40 35 -40 34 0 35 1 35 40 0 39 -1 40 -35 40
-34 0 -35 -1 -35 -40z"/>
<path d="M1020 2425 c0 -34 1 -35 40 -35 39 0 40 1 40 35 0 34 -1 35 -40 35
-39 0 -40 -1 -40 -35z"/>
<path d="M1140 2425 c0 -33 2 -35 35 -35 33 0 35 2 35 35 0 33 -2 35 -35 35
-33 0 -35 -2 -35 -35z"/>
<path d="M1590 2425 c0 -34 1 -35 40 -35 39 0 40 1 40 35 0 34 -1 35 -40 35
-39 0 -40 -1 -40 -35z"/>
<path d="M1703 2425 c-1 -34 0 -35 38 -35 38 0 39 1 39 35 0 34 -1 35 -38 35
-37 0 -38 -1 -39 -35z"/>
<path d="M1820 2425 c0 -33 2 -35 35 -35 33 0 35 2 35 35 0 33 -2 35 -35 35
-33 0 -35 -2 -35 -35z"/>
<path d="M1930 2425 c0 -34 1 -35 40 -35 39 0 40 1 40 35 0 34 -1 35 -40 35
-39 0 -40 -1 -40 -35z"/>
<path d="M2050 2425 c0 -33 2 -35 35 -35 33 0 35 2 35 35 0 33 -2 35 -35 35
-33 0 -35 -2 -35 -35z"/>
<path d="M910 2315 c0 -33 2 -35 35 -35 33 0 35 2 35 35 0 33 -2 35 -35 35
-33 0 -35 -2 -35 -35z"/>
<path d="M1360 2315 c0 -34 1 -35 40 -35 39 0 40 1 40 35 0 34 -1 35 -40 35
-39 0 -40 -1 -40 -35z"/>
<path d="M1480 2315 c0 -33 2 -35 35 -35 33 0 35 2 35 35 0 33 -2 35 -35 35
-33 0 -35 -2 -35 -35z"/>
<path d="M1590 2315 c0 -34 1 -35 40 -35 39 0 40 1 40 35 0 34 -1 35 -40 35
-39 0 -40 -1 -40 -35z"/>
<path d="M1703 2318 c2 -30 5 -33 40 -36 36 -3 37 -3 37 32 0 35 -1 36 -39 36
-38 0 -39 -1 -38 -32z"/>
<path d="M1820 2315 c0 -33 2 -35 35 -35 33 0 35 2 35 35 0 33 -2 35 -35 35
-33 0 -35 -2 -35 -35z"/>
<path d="M1930 2315 c0 -34 1 -35 40 -35 39 0 40 1 40 35 0 34 -1 35 -40 35
-39 0 -40 -1 -40 -35z"/>
<path d="M2050 2315 c0 -33 2 -35 35 -35 33 0 35 2 35 35 0 33 -2 35 -35 35
-33 0 -35 -2 -35 -35z"/>
<path d="M2160 2315 c0 -33 2 -35 35 -35 33 0 35 2 35 35 0 33 -2 35 -35 35
-33 0 -35 -2 -35 -35z"/>
<path d="M800 2200 c0 -39 1 -40 35 -40 34 0 35 1 35 40 0 39 -1 40 -35 40
-34 0 -35 -1 -35 -40z"/>
<path d="M910 2200 c0 -39 1 -40 35 -40 34 0 35 1 35 40 0 39 -1 40 -35 40
-34 0 -35 -1 -35 -40z"/>
<path d="M1250 2200 l0 -41 38 3 c35 3 37 5 37 38 0 33 -2 35 -37 38 l-38 3 0
-41z"/>
<path d="M1362 2203 c3 -36 5 -38 41 -41 l37 -3 0 40 0 41 -41 0 -40 0 3 -37z"/>
<path d="M1480 2200 c0 -39 1 -40 35 -40 34 0 35 1 35 40 0 39 -1 40 -35 40
-34 0 -35 -1 -35 -40z"/>
<path d="M1590 2200 l0 -41 38 3 c35 3 37 5 37 38 0 33 -2 35 -37 38 l-38 3 0
-41z"/>
<path d="M1708 2205 c-5 -43 -3 -45 39 -45 32 0 33 1 33 40 0 39 -1 40 -34 40
-31 0 -34 -3 -38 -35z"/>
<path d="M1820 2200 c0 -39 1 -40 35 -40 34 0 35 1 35 40 0 39 -1 40 -35 40
-34 0 -35 -1 -35 -40z"/>
<path d="M1930 2200 l0 -40 40 0 40 0 0 40 0 40 -40 0 -40 0 0 -40z"/>
<path d="M2050 2200 c0 -39 1 -40 35 -40 34 0 35 1 35 40 0 39 -1 40 -35 40
-34 0 -35 -1 -35 -40z"/>
<path d="M2160 2200 c0 -39 1 -40 35 -40 34 0 35 1 35 40 0 39 -1 40 -35 40
-34 0 -35 -1 -35 -40z"/>
<path d="M570 1726 l0 -395 38 -3 c35 -3 37 -5 37 -38 0 -33 -2 -35 -37 -38
-24 -2 -38 -8 -38 -17 0 -9 14 -15 38 -17 35 -3 37 -5 40 -40 l3 -38 -40 0
c-34 0 -41 -3 -41 -20 0 -17 7 -20 41 -20 l40 0 -3 -37 c-3 -36 -5 -38 -40
-41 -24 -2 -38 -8 -38 -17 0 -9 14 -15 38 -17 35 -3 37 -5 40 -40 l3 -38 -40
0 c-34 0 -41 -3 -41 -20 0 -17 7 -20 40 -20 39 0 40 -1 40 -35 0 -36 -3 -38
-62 -38 -11 0 -18 -7 -18 -18 0 -15 8 -19 41 -19 l40 0 -3 -38 c-3 -35 -5 -37
-40 -40 -24 -2 -38 -8 -38 -17 0 -9 14 -15 38 -17 35 -3 37 -5 40 -41 l3 -37
-40 0 -41 0 0 -55 0 -55 280 0 280 0 0 35 c0 34 1 35 40 35 39 0 40 -1 40 -35
0 -28 4 -35 20 -35 16 0 20 7 20 35 0 34 1 35 40 35 39 0 40 -1 40 -35 0 -24
5 -35 15 -35 10 0 15 11 15 35 0 34 1 35 40 35 39 0 40 -1 40 -35 0 -27 4 -35
18 -35 15 0 19 7 18 33 -1 30 1 32 37 35 36 3 37 3 37 -32 0 -29 4 -36 20 -36
16 0 20 7 20 35 0 34 1 35 40 35 39 0 40 -1 40 -35 l0 -35 280 0 280 0 0 735
0 735 -35 0 c-34 0 -35 1 -35 40 0 39 1 40 35 40 28 0 35 4 35 20 0 16 -7 20
-35 20 -33 0 -35 2 -35 35 0 28 -4 35 -20 35 -16 0 -20 -7 -20 -35 0 -34 -1
-35 -40 -35 -39 0 -40 1 -40 35 0 24 -5 35 -15 35 -10 0 -15 -11 -15 -35 0
-34 -1 -35 -40 -35 -39 0 -40 1 -40 35 0 24 -5 35 -15 35 -10 0 -15 -11 -15
-35 0 -34 -1 -35 -40 -35 -39 0 -40 1 -40 35 0 28 -4 35 -20 35 -16 0 -20 -7
-20 -35 0 -34 -1 -35 -40 -35 -39 0 -40 1 -40 35 0 24 -5 35 -15 35 -10 0 -15
-11 -15 -35 0 -34 -1 -35 -40 -35 -39 0 -40 1 -40 35 0 28 -4 35 -20 35 -16 0
-20 -7 -20 -35 0 -34 -1 -35 -39 -35 -38 0 -39 1 -36 35 1 28 -2 35 -17 35
-14 0 -18 -8 -18 -35 0 -34 -1 -35 -40 -35 -39 0 -40 1 -40 35 0 24 -5 35 -15
35 -10 0 -15 -11 -15 -35 0 -34 -1 -35 -40 -35 -39 0 -40 1 -40 35 l0 35 -130
0 -130 0 0 -35 c0 -34 -1 -35 -40 -35 -39 0 -40 1 -40 35 0 28 -4 35 -20 35
-16 0 -20 -7 -20 -35 0 -34 -1 -35 -40 -35 -39 0 -40 1 -40 35 l0 35 -110 0
-110 0 0 -394z m300 243 l0 -40 -37 3 c-36 3 -38 5 -41 41 l-3 37 40 0 41 0 0
-41z m118 4 c-3 -36 -5 -38 -40 -41 l-38 -3 0 40 0 41 41 0 40 0 -3 -37z m112
-3 l0 -40 -40 0 -40 0 0 40 0 40 40 0 40 0 0 -40z m230 0 l0 -40 -40 0 -40 0
0 40 0 40 40 0 40 0 0 -40z m110 0 l0 -40 -40 0 -40 0 0 40 0 40 40 0 40 0 0
-40z m110 -1 l0 -40 -37 3 c-33 3 -38 7 -39 28 -2 40 6 50 42 50 33 0 34 -1
34 -41z m120 1 l0 -40 -40 0 -40 0 0 40 0 40 40 0 40 0 0 -40z m110 0 l0 -40
-40 0 -40 0 0 40 0 40 40 0 40 0 0 -40z m118 3 c-3 -36 -5 -38 -40 -41 l-38
-3 0 40 0 41 41 0 40 0 -3 -37z m112 -3 l0 -40 -40 0 -40 0 0 40 0 40 40 0 40
0 0 -40z m110 -1 l0 -40 -37 3 c-36 3 -38 5 -41 41 l-3 37 40 0 41 0 0 -41z
m-1250 -109 l0 -40 -40 0 c-39 0 -40 1 -40 33 0 42 5 47 47 47 32 0 33 -1 33
-40z m120 0 l0 -40 -40 0 -40 0 0 40 0 40 40 0 40 0 0 -40z m110 0 l0 -40 -40
0 -40 0 0 40 0 40 40 0 40 0 0 -40z m340 0 l0 -40 -40 0 -40 0 0 40 0 40 40 0
40 0 0 -40z m110 -1 l0 -40 -37 3 c-35 3 -38 6 -39 33 -1 41 2 45 42 45 33 0
34 -1 34 -41z m120 1 l0 -40 -40 0 -40 0 0 40 0 40 40 0 40 0 0 -40z m110 0
l0 -40 -40 0 -40 0 0 40 0 40 40 0 40 0 0 -40z m115 0 c0 -33 -2 -35 -37 -38
l-38 -3 0 41 0 41 38 -3 c35 -3 37 -5 37 -38z m115 0 l0 -40 -40 0 -40 0 0 40
0 40 40 0 40 0 0 -40z m110 0 l0 -40 -40 0 -40 0 0 40 0 40 40 0 40 0 0 -40z
m-1250 -112 c0 -38 0 -38 -40 -38 -39 0 -40 1 -40 34 0 36 7 41 57 41 20 0 23
-5 23 -37z m680 -4 c0 -33 -1 -34 -38 -34 -37 0 -38 2 -39 33 0 38 8 45 47 39
27 -4 30 -8 30 -38z m120 0 c0 -33 -1 -34 -40 -34 -39 0 -40 1 -40 33 0 42 2
44 45 39 32 -4 35 -7 35 -38z m110 0 c0 -33 -1 -34 -40 -34 -39 0 -40 1 -40
34 0 37 14 46 58 38 18 -4 22 -11 22 -38z m120 0 c0 -33 -1 -34 -40 -34 -40 0
-40 0 -40 38 l0 38 40 -4 c38 -4 40 -6 40 -38z m103 37 c4 -1 7 -17 7 -36 0
-34 -1 -35 -40 -35 -39 0 -40 1 -40 34 0 36 10 44 45 40 11 -1 23 -3 28 -3z
m-1013 -36 c0 -34 -1 -35 -40 -35 -39 0 -40 1 -40 35 0 34 1 35 40 35 39 0 40
-1 40 -35z m450 0 c0 -34 -1 -35 -40 -35 -39 0 -40 1 -40 35 0 34 1 35 40 35
39 0 40 -1 40 -35z m-570 -116 l0 -40 -37 3 c-36 3 -38 5 -41 41 l-3 37 40 0
41 0 0 -41z m120 1 l0 -40 -40 0 -40 0 0 40 0 40 40 0 40 0 0 -40z m110 0 l0
-40 -40 0 -40 0 0 40 0 40 40 0 40 0 0 -40z m230 0 l0 -40 -40 0 -40 0 0 40 0
40 40 0 40 0 0 -40z m110 0 l0 -40 -40 0 -40 0 0 40 0 40 40 0 40 0 0 -40z
m110 -1 l0 -40 -37 3 c-27 2 -37 8 -39 23 -6 39 6 55 42 55 33 0 34 -1 34 -41z
m120 1 l0 -40 -40 0 -40 0 0 40 0 40 40 0 40 0 0 -40z m110 0 l0 -40 -40 0
-40 0 0 40 0 40 40 0 40 0 0 -40z m118 3 c-3 -36 -5 -38 -40 -41 l-38 -3 0 40
0 41 41 0 40 0 -3 -37z m112 -3 l0 -40 -40 0 -40 0 0 40 0 40 40 0 40 0 0 -40z
m-1140 -110 l0 -40 -40 0 c-39 0 -40 1 -40 33 0 42 5 47 47 47 32 0 33 -1 33
-40z m118 -2 l3 -38 -40 0 -41 0 0 41 0 40 38 -3 c35 -3 37 -5 40 -40z m112 2
l0 -40 -40 0 -40 0 0 40 0 40 40 0 40 0 0 -40z m110 0 l0 -40 -40 0 c-39 0
-40 1 -40 33 0 42 5 47 47 47 32 0 33 -1 33 -40z m118 -2 l3 -38 -40 0 -41 0
0 41 0 40 38 -3 c35 -3 37 -5 40 -40z m112 2 l0 -40 -40 0 -40 0 0 40 0 40 40
0 40 0 0 -40z m110 -1 l0 -40 -37 3 c-30 2 -37 7 -40 28 -6 39 4 50 42 50 34
0 35 -1 35 -41z m120 1 l0 -40 -40 0 -40 0 0 40 0 40 40 0 40 0 0 -40z m110 0
l0 -40 -40 0 c-39 0 -40 1 -40 33 0 19 3 37 7 40 3 4 21 7 40 7 32 0 33 -1 33
-40z m118 -2 l3 -38 -40 0 -41 0 0 41 0 40 38 -3 c35 -3 37 -5 40 -40z m112 2
l0 -40 -40 0 -40 0 0 40 0 40 40 0 40 0 0 -40z m110 0 l0 -40 -40 0 c-39 0
-40 1 -40 33 0 19 3 37 7 40 3 4 21 7 40 7 32 0 33 -1 33 -40z m-1360 -120 l0
-40 -40 0 -40 0 0 40 0 40 40 0 40 0 0 -40z m110 -1 l0 -40 -37 3 c-36 3 -38
5 -41 41 l-3 37 40 0 41 0 0 -41z m118 4 c-3 -36 -5 -38 -40 -41 l-38 -3 0 40
0 41 41 0 40 0 -3 -37z m112 -4 l0 -40 -37 3 c-36 3 -38 5 -41 41 l-3 37 40 0
41 0 0 -41z m110 0 l0 -40 -37 3 c-36 3 -38 5 -41 41 l-3 37 40 0 41 0 0 -41z
m118 4 c-3 -36 -5 -38 -40 -41 l-38 -3 0 40 0 41 41 0 40 0 -3 -37z m112 -4
l0 -40 -37 3 c-36 3 -38 5 -41 41 l-3 37 40 0 41 0 0 -41z m110 0 l0 -40 -37
3 c-37 3 -38 4 -38 41 0 36 0 37 37 37 38 0 38 0 38 -41z m118 4 c-3 -36 -5
-38 -40 -41 l-38 -3 0 40 0 41 41 0 40 0 -3 -37z m112 -4 l0 -40 -37 3 c-36 3
-38 5 -41 41 l-3 37 40 0 41 0 0 -41z m118 4 c-3 -36 -5 -38 -40 -41 l-38 -3
0 40 0 41 41 0 40 0 -3 -37z m112 -3 l0 -40 -40 0 -40 0 0 40 0 40 40 0 40 0
0 -40z m110 -1 l0 -40 -37 3 c-36 3 -38 5 -41 41 l-3 37 40 0 41 0 0 -41z
m-1360 -109 l0 -40 -40 0 -40 0 0 40 0 40 40 0 40 0 0 -40z m110 0 l0 -40 -40
0 -40 0 0 40 0 40 40 0 40 0 0 -40z m120 0 l0 -40 -40 0 -40 0 0 40 0 40 40 0
40 0 0 -40z m110 0 l0 -40 -40 0 -40 0 0 40 0 40 40 0 40 0 0 -40z m110 -1 l0
-40 -37 3 c-31 2 -39 7 -41 26 -6 39 5 52 43 52 34 0 35 -1 35 -41z m120 1 l0
-40 -40 0 -40 0 0 40 0 40 40 0 40 0 0 -40z m110 0 l0 -40 -40 0 -40 0 0 40 0
40 40 0 40 0 0 -40z m110 0 c0 -39 -1 -40 -35 -40 -29 0 -36 4 -41 25 -10 40
1 55 41 55 34 0 35 -1 35 -40z m120 0 l0 -40 -40 0 -40 0 0 40 0 40 40 0 40 0
0 -40z m110 0 l0 -40 -40 0 -40 0 0 40 0 40 40 0 40 0 0 -40z m115 0 c0 -33
-2 -35 -37 -38 l-38 -3 0 41 0 41 38 -3 c35 -3 37 -5 37 -38z m115 0 l0 -40
-40 0 -40 0 0 40 0 40 40 0 40 0 0 -40z m-1250 -110 l0 -40 -40 0 -40 0 0 40
0 40 40 0 40 0 0 -40z m110 0 l0 -40 -40 0 c-39 0 -40 1 -40 33 0 19 3 37 7
40 3 4 21 7 40 7 32 0 33 -1 33 -40z m118 -2 l3 -38 -40 0 -41 0 0 41 0 40 38
-3 c35 -3 37 -5 40 -40z m112 2 l0 -40 -40 0 c-39 0 -40 1 -40 33 0 19 3 37 7
40 3 4 21 7 40 7 32 0 33 -1 33 -40z m110 0 l0 -40 -40 0 c-39 0 -40 1 -40 33
0 19 3 37 7 40 3 4 21 7 40 7 32 0 33 -1 33 -40z m118 -2 l3 -38 -40 0 -41 0
0 41 0 40 38 -3 c35 -3 37 -5 40 -40z m112 2 l0 -40 -40 0 c-39 0 -40 1 -40
33 0 42 5 47 47 47 32 0 33 -1 33 -40z m110 0 c0 -39 -1 -40 -35 -40 -29 0
-36 4 -41 25 -10 40 1 55 41 55 34 0 35 -1 35 -40z m118 -2 l3 -38 -40 0 -41
0 0 41 0 40 38 -3 c35 -3 37 -5 40 -40z m112 2 l0 -40 -40 0 c-39 0 -40 1 -40
33 0 42 5 47 47 47 32 0 33 -1 33 -40z m118 -2 l3 -38 -40 0 -41 0 0 41 0 40
38 -3 c35 -3 37 -5 40 -40z m110 0 l3 -38 -40 0 -41 0 0 41 0 40 38 -3 c35 -3
37 -5 40 -40z m-1248 -118 l0 -40 -40 0 -40 0 0 40 0 40 40 0 40 0 0 -40z
m110 -1 l0 -40 -37 3 c-36 3 -38 5 -41 41 l-3 37 40 0 41 0 0 -41z m118 4 c-3
-36 -5 -38 -40 -41 l-38 -3 0 40 0 41 41 0 40 0 -3 -37z m112 -3 l0 -40 -40 0
-40 0 0 40 0 40 40 0 40 0 0 -40z m110 -1 l0 -40 -37 3 c-36 3 -38 5 -41 41
l-3 37 40 0 41 0 0 -41z m118 4 c-3 -36 -5 -38 -40 -41 l-38 -3 0 40 0 41 41
0 40 0 -3 -37z m112 -3 l0 -40 -40 0 -40 0 0 40 0 40 40 0 40 0 0 -40z m110
-1 l0 -40 -37 3 c-31 2 -39 7 -41 26 -6 39 5 52 43 52 34 0 35 -1 35 -41z
m120 1 l0 -40 -40 0 -40 0 0 40 0 40 40 0 40 0 0 -40z m110 -1 l0 -40 -37 3
c-36 3 -38 5 -41 41 l-3 37 40 0 41 0 0 -41z m118 4 c-3 -36 -5 -38 -40 -41
l-38 -3 0 40 0 41 41 0 40 0 -3 -37z m112 -3 l0 -40 -40 0 -40 0 0 40 0 40 40
0 40 0 0 -40z m-1250 -110 l0 -40 -40 0 -40 0 0 40 0 40 40 0 40 0 0 -40z
m110 0 l0 -40 -40 0 c-39 0 -40 1 -40 33 0 19 3 37 7 40 3 4 21 7 40 7 32 0
33 -1 33 -40z m120 0 l0 -40 -40 0 -40 0 0 40 0 40 40 0 40 0 0 -40z m110 0
l0 -40 -40 0 -40 0 0 40 0 40 40 0 40 0 0 -40z m110 0 l0 -40 -40 0 c-39 0
-40 1 -40 33 0 19 3 37 7 40 3 4 21 7 40 7 32 0 33 -1 33 -40z m120 0 l0 -40
-40 0 -40 0 0 40 0 40 40 0 40 0 0 -40z m110 0 l0 -40 -40 0 -40 0 0 40 0 40
40 0 40 0 0 -40z m110 -1 l0 -40 -37 3 c-34 3 -38 6 -39 33 -2 41 2 45 42 45
33 0 34 -1 34 -41z m-790 -113 c0 -29 -4 -34 -28 -38 -43 -6 -52 0 -52 38 0
33 1 34 40 34 39 0 40 -1 40 -34z m110 -5 c0 -42 4 -41 -72 -32 -5 1 -8 17 -8
36 0 34 1 35 40 35 40 0 40 0 40 -39z m120 4 c0 -24 -5 -35 -15 -36 -61 -5
-60 -5 -63 34 l-3 37 40 0 c40 0 41 -1 41 -35z m110 1 c0 -31 -3 -34 -35 -38
-43 -5 -45 -3 -45 39 0 32 1 33 40 33 39 0 40 -1 40 -34z m110 -5 c0 -38 -1
-39 -32 -35 -18 1 -36 3 -40 3 -5 1 -8 17 -8 36 0 34 1 35 40 35 40 0 40 0 40
-39z m120 4 c0 -34 -1 -35 -40 -35 -39 0 -40 1 -40 35 0 34 1 35 40 35 39 0
40 -1 40 -35z m110 0 c0 -34 -1 -35 -40 -35 -39 0 -40 1 -40 35 0 34 1 35 40
35 39 0 40 -1 40 -35z m112 0 l4 -35 -42 0 c-41 0 -42 0 -41 35 1 33 3 35 38
35 35 0 37 -2 41 -35z m-792 -115 l0 -40 -40 0 -40 0 0 40 0 40 40 0 40 0 0
-40z m110 -1 l0 -40 -37 3 c-36 3 -38 5 -41 41 l-3 37 40 0 41 0 0 -41z m120
1 l0 -40 -40 0 -40 0 0 40 0 40 40 0 40 0 0 -40z m110 0 l0 -40 -40 0 -40 0 0
40 0 40 40 0 40 0 0 -40z m110 -1 l0 -40 -37 3 c-36 3 -38 5 -41 41 l-3 37 40
0 41 0 0 -41z m120 1 l0 -40 -40 0 -40 0 0 40 0 40 40 0 40 0 0 -40z m110 0
l0 -40 -40 0 -40 0 0 40 0 40 40 0 40 0 0 -40z m110 -1 l0 -40 -36 3 c-33 3
-37 7 -40 32 -4 40 1 46 42 46 33 0 34 -1 34 -41z m120 1 l0 -40 -40 0 -40 0
0 40 0 40 40 0 40 0 0 -40z m-682 -112 l3 -38 -40 0 -41 0 0 41 0 40 38 -3
c35 -3 37 -5 40 -40z m112 2 l0 -40 -40 0 -40 0 0 40 0 40 40 0 40 0 0 -40z
m110 0 l0 -40 -40 0 c-39 0 -40 1 -40 33 0 42 5 47 47 47 32 0 33 -1 33 -40z
m120 0 l0 -40 -40 0 -40 0 0 40 0 40 40 0 40 0 0 -40z m110 0 l0 -40 -40 0
-40 0 0 40 0 40 40 0 40 0 0 -40z m110 -1 l0 -40 -37 3 c-31 2 -39 7 -41 26
-6 39 5 52 43 52 34 0 35 -1 35 -41z m120 1 l0 -40 -40 0 -40 0 0 40 0 40 40
0 40 0 0 -40z"/>
<path d="M2310 1290 l0 -830 1345 0 1345 0 0 830 0 830 -1345 0 -1345 0 0
-830z m1518 -242 l3 -57 76 -3 c84 -3 101 -15 89 -61 -6 -26 -8 -27 -86 -27
l-80 0 0 -105 c0 -92 3 -108 20 -125 22 -22 55 -25 97 -9 24 9 30 7 45 -11 10
-12 18 -28 18 -36 0 -45 -165 -67 -217 -28 -57 42 -63 69 -63 291 0 225 3 237
64 231 30 -3 31 -4 34 -60z m-1032 -79 c29 -27 30 -40 6 -69 -17 -21 -20 -22
-43 -7 -61 40 -159 27 -194 -27 -39 -60 -24 -156 29 -191 38 -25 105 -30 149
-12 l37 16 20 -39 20 -38 -48 -19 c-65 -25 -164 -23 -218 5 -84 43 -120 114
-111 218 6 75 33 124 87 160 70 47 218 48 266 3z m357 16 c23 -10 33 -53 16
-70 -11 -11 -24 -12 -53 -5 -50 11 -90 3 -113 -22 -15 -17 -18 -42 -21 -170
l-3 -149 -47 3 -47 3 -3 145 c-3 165 9 215 59 251 48 34 148 41 212 14z m405
-17 c123 -82 130 -272 12 -357 -181 -131 -419 27 -360 239 13 49 66 109 114
132 63 29 179 22 234 -14z m812 14 c42 -21 80 -75 80 -114 0 -41 -26 -85 -60
-103 -34 -18 -179 -39 -216 -32 -15 2 -24 0 -24 -8 0 -18 50 -65 77 -71 26 -7
114 0 150 11 17 6 25 1 37 -24 9 -16 16 -32 16 -35 0 -14 -102 -40 -159 -40
-90 -1 -154 31 -195 98 -26 41 -30 58 -30 115 1 100 49 176 134 210 42 17 151
13 190 -7z m460 3 c37 -19 50 -44 40 -71 -12 -31 -26 -37 -52 -20 -58 37 -144
28 -188 -19 -28 -30 -38 -117 -18 -154 32 -60 116 -86 186 -58 l38 15 19 -35
c19 -34 19 -36 1 -49 -10 -7 -44 -18 -74 -25 -156 -32 -282 63 -282 213 0 97
38 164 115 199 51 24 173 26 215 4z"/>
<path d="M3371 903 c-44 -22 -76 -89 -66 -141 21 -111 142 -148 214 -66 26 29
31 43 31 88 0 62 -24 100 -76 122 -43 18 -61 17 -103 -3z"/>
<path d="M4240 923 c-57 -18 -90 -56 -90 -104 0 -21 3 -22 69 -15 113 10 140
27 127 80 -8 32 -64 53 -106 39z"/>
<path d="M460 1175 c0 -33 2 -35 35 -35 33 0 35 2 35 35 0 33 -2 35 -35 35
-33 0 -35 -2 -35 -35z"/>
<path d="M460 1065 c0 -33 2 -35 35 -35 33 0 35 2 35 35 0 33 -2 35 -35 35
-33 0 -35 -2 -35 -35z"/>
<path d="M230 950 c0 -39 1 -40 35 -40 34 0 35 1 35 40 0 39 -1 40 -35 40 -34
0 -35 -1 -35 -40z"/>
<path d="M340 951 l0 -41 41 0 40 0 -3 38 c-3 35 -5 37 -40 40 l-38 3 0 -40z"/>
<path d="M460 950 c0 -39 1 -40 35 -40 34 0 35 1 35 40 0 39 -1 40 -35 40 -34
0 -35 -1 -35 -40z"/>
<path d="M340 835 c0 -34 1 -35 40 -35 39 0 40 1 40 35 0 34 -1 35 -40 35 -39
0 -40 -1 -40 -35z"/>
<path d="M460 835 c0 -33 2 -35 35 -35 33 0 35 2 35 35 0 33 -2 35 -35 35 -33
0 -35 -2 -35 -35z"/>
<path d="M119 755 c-3 -2 -3 -20 -1 -40 4 -32 7 -35 38 -35 33 0 34 1 34 40 0
39 -1 40 -33 40 -19 0 -36 -2 -38 -5z"/>
<path d="M230 720 c0 -39 1 -40 35 -40 34 0 35 1 35 40 0 39 -1 40 -35 40 -34
0 -35 -1 -35 -40z"/>
<path d="M340 719 l0 -40 38 3 c35 3 37 5 40 41 l3 37 -40 0 -41 0 0 -41z"/>
<path d="M460 720 c0 -39 1 -40 35 -40 34 0 35 1 35 40 0 39 -1 40 -35 40 -34
0 -35 -1 -35 -40z"/>
<path d="M352 642 c-7 -2 -12 -19 -12 -38 0 -33 1 -34 40 -34 39 0 40 1 40 34
0 29 -4 34 -28 38 -16 2 -34 2 -40 0z"/>
<path d="M488 643 c-24 -4 -28 -9 -28 -39 0 -32 2 -34 35 -34 34 0 35 1 35 40
0 22 -3 39 -7 39 -5 -1 -20 -4 -35 -6z"/>
<path d="M230 605 c0 -33 2 -35 35 -35 33 0 35 2 35 35 0 33 -2 35 -35 35 -33
0 -35 -2 -35 -35z"/>
<path d="M0 495 c0 -34 1 -35 40 -35 39 0 40 1 40 35 0 34 -1 35 -40 35 -39 0
-40 -1 -40 -35z"/>
<path d="M118 525 c-2 -3 -3 -18 0 -35 4 -27 8 -30 38 -30 32 0 34 2 34 35 0
33 -2 35 -33 35 -19 0 -36 -2 -39 -5z"/>
<path d="M230 495 c0 -33 2 -35 35 -35 33 0 35 2 35 35 0 33 -2 35 -35 35 -33
0 -35 -2 -35 -35z"/>
<path d="M340 495 c0 -34 1 -35 40 -35 39 0 40 1 40 35 0 34 -1 35 -40 35 -39
0 -40 -1 -40 -35z"/>
<path d="M460 495 c0 -33 2 -35 35 -35 33 0 35 2 35 35 0 33 -2 35 -35 35 -33
0 -35 -2 -35 -35z"/>
<path d="M230 380 c0 -39 1 -40 35 -40 34 0 35 1 35 40 0 39 -1 40 -35 40 -34
0 -35 -1 -35 -40z"/>
<path d="M340 380 l0 -40 40 0 40 0 0 40 0 40 -40 0 -40 0 0 -40z"/>
<path d="M460 380 c0 -39 1 -40 35 -40 34 0 35 1 35 40 0 39 -1 40 -35 40 -34
0 -35 -1 -35 -40z"/>
<path d="M1480 380 c0 -39 1 -40 35 -40 34 0 35 1 35 40 0 39 -1 40 -35 40
-34 0 -35 -1 -35 -40z"/>
<path d="M1590 380 l0 -41 38 3 c35 3 37 5 37 38 0 33 -2 35 -37 38 l-38 3 0
-41z"/>
<path d="M1360 265 c0 -34 1 -35 40 -35 39 0 40 1 40 35 0 34 -1 35 -40 35
-39 0 -40 -1 -40 -35z"/>
<path d="M1480 265 c0 -33 2 -35 35 -35 33 0 35 2 35 35 0 33 -2 35 -35 35
-33 0 -35 -2 -35 -35z"/>
<path d="M1360 155 c0 -34 1 -35 40 -35 39 0 40 1 40 35 0 34 -1 35 -40 35
-39 0 -40 -1 -40 -35z"/>
<path d="M1480 155 c0 -33 2 -35 35 -35 33 0 35 2 35 35 0 33 -2 35 -35 35
-33 0 -35 -2 -35 -35z"/>
<path d="M1367 73 c-4 -3 -7 -21 -7 -40 0 -32 1 -33 40 -33 l40 0 0 40 c0 39
-1 40 -33 40 -19 0 -37 -3 -40 -7z"/>
<path d="M1480 40 c0 -39 1 -40 35 -40 34 0 35 1 35 40 0 39 -1 40 -35 40 -34
0 -35 -1 -35 -40z"/>
<path d="M1590 41 l0 -41 41 0 40 0 -3 38 c-3 35 -5 37 -40 40 l-38 3 0 -40z"/>
</g>
</svg>
